<?xml version="1.0" standalone="no"?>
<!DOCTYPE svg PUBLIC "-//W3C//DTD SVG 20010904//EN"
 "http://www.w3.org/TR/2001/REC-SVG-20010904/DTD/svg10.dtd">
<svg version="1.0" xmlns="http://www.w3.org/2000/svg"
 width="260.000000pt" height="260.000000pt" viewBox="0 0 260.000000 260.000000"
 preserveAspectRatio="xMidYMid meet">
<metadata>
Created by potrace 1.11, written by Peter Selinger 2001-2013
</metadata>
<g transform="translate(0.000000,260.000000) scale(0.100000,-0.100000)"
fill="#000000" stroke="none">
<path d="M1230 2274 c-62 -18 -118 -68 -146 -128 -113 -243 196 -456 385 -267
172 172 -4 465 -239 395z"/>
<path d="M1624 2207 c-2 -7 2 -38 10 -68 23 -91 12 -171 -40 -286 -13 -29 -21
-59 -18 -68 3 -8 38 -24 78 -36 215 -64 397 -206 544 -425 62 -93 97 -95 94
-7 -6 177 -78 358 -220 552 -57 77 -177 203 -250 262 -89 72 -185 109 -198 76z"/>
<path d="M765 2121 c-203 -136 -375 -425 -440 -736 -29 -140 -21 -275 16 -275
6 0 34 21 63 47 73 66 135 90 276 108 65 7 72 21 48 108 -24 90 -30 251 -12
355 18 100 46 185 102 304 37 81 43 100 32 113 -17 21 -21 20 -85 -24z"/>
<path d="M553 1131 c-82 -38 -143 -132 -143 -219 0 -124 115 -242 237 -242
134 0 243 114 243 254 0 72 -60 165 -132 202 -51 26 -154 29 -205 5z"/>
<path d="M1855 1130 c-87 -37 -144 -125 -145 -218 -1 -206 235 -317 390 -184
60 50 84 103 84 182 -1 96 -44 169 -129 213 -53 27 -146 31 -200 7z"/>
<path d="M1522 758 c-25 -24 -53 -49 -60 -56 -33 -30 -110 -77 -185 -112 -100
-47 -212 -77 -337 -91 -155 -17 -157 -18 -163 -39 -6 -23 24 -43 123 -82 181
-71 407 -80 660 -24 181 41 350 118 366 168 7 25 -3 32 -71 52 -72 22 -137 67
-184 128 -64 82 -79 98 -90 98 -7 0 -33 -19 -59 -42z"/>
</g>
</svg>
